<svg width="52" height="51" viewBox="0 0 52 51" fill="none" xmlns="http://www.w3.org/2000/svg">
<path fill-rule="evenodd" clip-rule="evenodd" d="M0 50.851V25.475C0 18.775 1.808 13.219 5.423 8.807C9.04 4.395 13.998 1.46 20.301 0V11.145C18.443 11.676 16.917 12.373 15.723 13.235C14.529 14.098 13.6 15.125 12.937 16.32C12.273 17.514 11.825 18.874 11.593 20.4C11.361 21.926 11.245 23.618 11.245 25.475V28.262H20.3V50.85H0V50.851ZM31.7 50.851V25.475C31.7 18.775 33.507 13.219 37.123 8.807C40.738 4.395 45.697 1.46 52 0V11.145C50.142 11.676 48.617 12.373 47.422 13.235C46.228 14.098 45.299 15.125 44.636 16.32C43.973 17.514 43.525 18.874 43.293 20.4C43.06 21.926 42.944 23.618 42.944 25.475V28.262H52V50.85H31.7V50.851Z" fill="#BACAE6"/>
</svg>
