<?xml version="1.0" encoding="UTF-8"?>
<svg width="24px" height="15px" viewBox="0 0 24 15" version="1.1" xmlns="http://www.w3.org/2000/svg" xmlns:xlink="http://www.w3.org/1999/xlink">
    <!-- Generator: Sketch 49.3 (51167) - http://www.bohemiancoding.com/sketch -->
    <title>cargo-truck</title>
    <desc>Created with Sketch.</desc>
    <defs></defs>
    <g id="Landings" stroke="none" stroke-width="1" fill="none" fill-rule="evenodd">
        <g id="Healeaf-drops-/-Payment-(v0.2)" transform="translate(-699.000000, -1016.000000)" fill="#FFFFFF" fill-rule="nonzero">
            <g id="cargo-truck" transform="translate(699.000000, 1016.000000)">
                <path d="M19.4400009,10.7302694 C18.3355902,10.7302694 17.4370917,11.6129501 17.4370917,12.6974124 C17.4370917,13.7821015 18.3355902,14.6645553 19.4400009,14.6645553 C20.5441806,14.6645553 21.4429101,13.7821015 21.4429101,12.6974124 C21.4429101,11.6129501 20.5441806,10.7302694 19.4400009,10.7302694 Z" id="Shape"></path>
                <path d="M19.2481806,2.5532018 L15.7876371,2.5532018 C15.5272435,2.5532018 15.3163644,2.76057996 15.3163644,3.01605897 L15.3163644,12.0417737 C15.3163644,12.2972527 15.5272435,12.5046308 15.7876371,12.5046308 L16.2874403,12.5046308 C16.5207281,12.5046308 16.7273719,12.3396056 16.7575195,12.1123745 C16.9424864,10.7205509 18.0728479,9.857345 19.4402319,9.857345 C20.807616,9.857345 21.9379775,10.7205887 22.1229444,12.1123745 C22.153092,12.3396434 22.3595048,12.5046308 22.5930235,12.5046308 L23.0923262,12.5046308 C23.3524503,12.5046308 23.563599,12.2972527 23.563599,12.0417737 L23.563599,7.52891632 C23.563599,7.42016001 23.5247113,7.31507177 23.4537893,7.23199194 L19.6096052,2.71913458 C19.520125,2.61408416 19.3876758,2.5532018 19.2481806,2.5532018 Z M16.2589099,6.25605912 L16.2589099,3.94177329 C16.2589099,3.68629429 16.469789,3.47891613 16.7301826,3.47891613 L18.8061314,3.47891613 C18.9458576,3.47891613 19.0785378,3.54002538 19.1680565,3.64552958 L21.131616,5.95981541 C21.3872737,6.26135324 21.1690791,6.71891628 20.7694598,6.71891628 L16.7301826,6.71891628 C16.469789,6.71891628 16.2589099,6.51180283 16.2589099,6.25605912 Z" id="Shape"></path>
                <path d="M0.471272749,12.5048577 L1.67798511,12.5048577 C1.91127282,12.5048577 2.11791668,12.3398325 2.14806427,12.1126014 C2.33303113,10.7207778 3.46339268,9.85757189 4.8307767,9.85757189 C6.19816072,9.85757189 7.32852227,10.7208156 7.51348912,12.1126014 C7.54363672,12.3398703 7.75004956,12.5048577 7.98356829,12.5048577 L13.9025461,12.5048577 C14.1627087,12.5048577 14.3738189,12.2974796 14.3738189,12.0420006 L14.3738189,0.470571451 C14.3738189,0.215092447 14.1626702,0.00771428608 13.9025461,0.00771428608 L0.471272749,0.00771428608 C0.210879154,0.00771428608 0,0.215092447 0,0.470571451 L0,12.0420006 C0,12.2975174 0.210879154,12.5048577 0.471272749,12.5048577 Z" id="Shape"></path>
                <path d="M4.83054568,10.7302694 C3.72613493,10.7302694 2.8276365,11.6129501 2.8276365,12.6974124 C2.8276365,13.7821015 3.72613493,14.6645553 4.83054568,14.6645553 C5.93472541,14.6645553 6.83345487,13.7821015 6.83345487,12.6974124 C6.83345487,11.6129501 5.93472541,10.7302694 4.83054568,10.7302694 Z" id="Shape"></path>
            </g>
        </g>
    </g>
</svg>