<svg width="19" height="15" viewBox="0 0 19 15" fill="none" xmlns="http://www.w3.org/2000/svg">
<path d="M0.218994 8.03875C0.0729941 7.89275 0 7.67276 0 7.52676C0 7.38076 0.0729941 7.16177 0.218994 7.01577L1.242 5.99276C1.535 5.69976 1.97301 5.69976 2.26501 5.99276L2.33801 6.06576L6.358 10.3768C6.504 10.5228 6.72299 10.5228 6.86899 10.3768L16.662 0.21975H16.735C17.027 -0.07325 17.465 -0.07325 17.758 0.21975L18.781 1.24276C19.073 1.53476 19.073 1.97277 18.781 2.26577L7.08801 14.3958C6.94201 14.5428 6.796 14.6157 6.577 14.6157C6.358 14.6157 6.212 14.5428 6.065 14.3958L0.36499 8.25778L0.218994 8.03875Z" fill="#2953A0"/>
</svg>
