<svg width="31" height="31" viewBox="0 0 31 31" fill="none" xmlns="http://www.w3.org/2000/svg">
<path d="M31 13.8681V15.5C31 24.0473 24.0473 31 15.5 31H13.8681V27.7371H15.5C22.2477 27.7371 27.7371 22.2477 27.7371 15.5C27.7371 8.75154 22.2477 3.26295 15.5 3.26295C12.958 3.26295 10.5996 4.04669 8.64344 5.38049L10.6052 7.34223L1.63108 9.78964L4.07928 0.81554L6.3081 3.04516C8.96417 1.06669 12.188 -0.00134065 15.5 1.26298e-06C23.4956 1.26298e-06 30.0938 6.08554 30.9126 13.8681H31ZM8.54726 29.3467C9.27377 29.7123 10.0329 30.0255 10.8182 30.2743L11.8038 27.1632C11.188 26.9672 10.5886 26.7227 10.0114 26.4319L8.54726 29.3467V29.3467ZM6.18172 23.3907L3.67549 25.4995C4.20903 26.1281 4.79107 26.7138 5.41626 27.2514L7.53856 24.7762C7.05091 24.3501 6.59725 23.8866 6.18172 23.3899V23.3907ZM0.756718 20.2565C1.01823 21.0601 1.33936 21.8383 1.72328 22.5775L4.63728 21.0895C4.3322 20.4991 4.07516 19.8851 3.86864 19.2534L0.756718 20.2557V20.2565ZM3.30428 14.694L0.0524615 14.4834C0.0286154 14.8212 0 15.1582 0 15.5C0 15.9404 0.0254359 16.376 0.062 16.8084L3.31223 16.5302C3.28135 16.1876 3.26491 15.8439 3.26295 15.5C3.26295 15.2258 3.286 14.9619 3.30428 14.694Z" fill="#4A73BE"/>
<path d="M16.1004 14.4062C16.1004 14.4062 14.0186 13.7839 14.0186 12.3571C14.0186 10.6918 15.4272 10.7061 15.7244 10.7061C16.2729 10.7061 17.5296 11.0034 17.5296 13.0534H20.3951C20.3951 9.07662 17.2848 8.71893 16.3158 8.57506V6.52588H14.6848V8.59731C13.6236 8.78093 11.1515 9.50744 11.1515 12.3467C11.1515 15.38 14.1657 16.2122 14.4153 16.3163C16.1624 17.046 17.5288 17.2662 17.5288 18.8305C17.5288 20.4099 15.955 20.452 15.645 20.452C15.3731 20.452 13.4734 20.5212 13.4734 17.9466H10.6055C10.6055 21.9686 13.7643 22.4829 14.6848 22.5855V24.4725H16.3158V22.595C16.9104 22.5394 20.3951 22.1101 20.3951 18.8098C20.3951 15.6351 16.7427 14.6503 16.1004 14.4054V14.4062Z" fill="#39726B"/>
</svg>
