<svg width="28" height="28" viewBox="0 0 28 28" fill="none" xmlns="http://www.w3.org/2000/svg">
<path fill-rule="evenodd" clip-rule="evenodd" d="M2.62509 25.375H17.5301L18.8501 27H2.60009C2.16009 27 1.78309 26.84 1.47009 26.518C1.31911 26.3687 1.19969 26.1906 1.11894 25.9943C1.0382 25.7979 0.997781 25.5873 1.00009 25.375V22.937C0.999825 22.805 1.03066 22.6748 1.09009 22.557C1.14909 22.438 1.22009 22.328 1.30509 22.227C1.39009 22.125 1.49509 22.023 1.62209 21.922C1.74909 21.82 1.86409 21.736 1.96509 21.668C2.06709 21.6 2.17709 21.537 2.29509 21.478C2.41409 21.418 2.49009 21.376 2.52409 21.351C2.55809 21.325 2.58409 21.313 2.60009 21.313L9.73509 17.935C8.71909 17.122 7.95309 16.001 7.43709 14.57C6.92109 13.14 6.66309 11.866 6.66309 10.749V6.687C6.66309 5.807 7.01809 4.927 7.72909 4.047C8.43909 3.167 9.37109 2.439 10.5221 1.863C11.6721 1.288 12.8281 1 13.9881 1C15.1481 1 16.2981 1.288 17.4411 1.863C18.5831 2.439 19.5111 3.167 20.2211 4.047C20.9321 4.927 21.2881 5.807 21.2881 6.687V10.75C21.2881 11.952 21.0421 13.251 20.5511 14.647C20.0611 16.044 19.3071 17.148 18.2911 17.961L22.6841 20.018L21.7191 21.388L17.6061 19.434C17.3521 19.316 17.1325 19.1351 16.968 18.9085C16.8035 18.6819 16.6996 18.417 16.6661 18.139C16.6489 17.9561 16.6617 17.7717 16.7041 17.593C16.7471 17.415 16.8141 17.246 16.9081 17.085C17.0011 16.925 17.1231 16.785 17.2761 16.666C18.0541 16.056 18.6461 15.16 19.0531 13.975C19.4591 12.79 19.6631 11.715 19.6631 10.75V6.687C19.6631 6.112 19.3871 5.511 18.8371 4.885C18.2871 4.258 17.5591 3.725 16.6541 3.285C15.7481 2.845 14.8551 2.625 13.9751 2.625C13.5351 2.625 13.0821 2.688 12.6171 2.815C12.1624 2.93823 11.7204 3.1043 11.2971 3.311C10.8821 3.514 10.4881 3.751 10.1161 4.021C9.76856 4.26933 9.44902 4.55467 9.16309 4.872C8.91216 5.15197 8.69901 5.46362 8.52909 5.799C8.36809 6.12 8.28709 6.417 8.28709 6.687V10.75C8.28709 11.681 8.50709 12.747 8.94709 13.95C9.38709 15.151 9.99709 16.057 10.7761 16.666C11.2331 17.056 11.4271 17.546 11.3601 18.139C11.2921 18.731 10.9791 19.154 10.4201 19.409L3.28609 22.785C2.84609 22.988 2.62609 23.301 2.62609 23.725V25.375H2.62509ZM26.6951 19.383C26.7835 19.4436 26.8577 19.5226 26.9126 19.6146C26.9675 19.7066 27.0018 19.8094 27.0131 19.916C27.0272 20.0195 27.0198 20.1247 26.9914 20.2252C26.963 20.3257 26.9142 20.4192 26.8481 20.5L22.9631 26.416C22.9331 26.5114 22.881 26.5984 22.8111 26.67C22.6528 26.8179 22.4438 26.8995 22.2271 26.898C22.0104 26.8995 21.8014 26.8179 21.6431 26.67L18.7731 23.8C18.7096 23.7383 18.6581 23.6654 18.6211 23.585C18.5869 23.5077 18.5615 23.4269 18.5451 23.344C18.5282 23.2602 18.5282 23.1738 18.5451 23.09C18.5621 23.005 18.5881 22.925 18.6211 22.849C18.6548 22.7735 18.7075 22.708 18.7741 22.659C18.8489 22.5789 18.9393 22.5149 19.0397 22.4711C19.1402 22.4272 19.2485 22.4044 19.3581 22.404C19.5781 22.404 19.7641 22.489 19.9161 22.658L22.0751 24.816L25.5531 19.51C25.6211 19.442 25.6891 19.383 25.7561 19.332C25.8237 19.2811 25.902 19.2462 25.9851 19.23C26.0691 19.214 26.1501 19.205 26.2261 19.205C26.3078 19.2059 26.389 19.2187 26.4671 19.243C26.554 19.2697 26.6328 19.3178 26.6961 19.383H26.6951Z" fill="#2953A0" stroke="#2953A0" stroke-width="0.7"/>
</svg>
