<svg width="28" height="25" viewBox="0 0 28 25" fill="none" xmlns="http://www.w3.org/2000/svg">
<path fill-rule="evenodd" clip-rule="evenodd" d="M8.33839 2.52002C7.54239 2.52002 6.82339 2.64202 6.18039 2.88802C5.51502 3.14746 4.9099 3.54056 4.40239 4.04302C3.23439 5.21102 2.65039 6.62402 2.65039 8.28302C2.65039 8.46902 2.65939 8.66402 2.67639 8.86702C2.69339 9.07002 2.72239 9.26502 2.76539 9.45102C2.80739 9.63702 2.85439 9.82402 2.90539 10.01C2.95539 10.196 3.01939 10.378 3.09539 10.556C3.24771 10.9118 3.43461 11.2518 3.65339 11.571C3.76339 11.732 3.88239 11.893 4.00939 12.054C4.13639 12.214 4.26739 12.363 4.40239 12.498C4.99539 13.09 8.03339 16.434 13.5184 22.528C13.6704 22.663 13.8484 22.73 14.0514 22.73C14.1184 22.73 14.2034 22.718 14.3054 22.692C14.4118 22.6637 14.5083 22.6066 14.5844 22.527C20.5764 16.044 23.6144 12.769 23.6994 12.701C24.8674 11.516 25.4514 10.103 25.4514 8.46102C25.4514 6.81902 24.8674 5.41402 23.6994 4.24602C22.5494 3.09502 21.2194 2.52002 19.7134 2.52002C19.5274 2.52002 19.3194 2.54502 19.0914 2.59602C18.8624 2.64602 18.6304 2.72602 18.3934 2.83602C18.1564 2.94602 17.9064 3.07802 17.6434 3.23002C17.3814 3.38302 17.1154 3.56002 16.8434 3.76402C16.5734 3.96702 16.2984 4.18702 16.0194 4.42402C15.7394 4.66102 15.4734 4.91402 15.2194 5.18602L14.0764 6.35402L12.9084 5.21102C11.0974 3.41702 9.57439 2.52002 8.33839 2.52002ZM8.33839 0.89502C10.0144 0.89502 11.9184 1.94402 14.0514 4.04302C14.8943 3.17185 15.8454 2.41232 16.8814 1.78302C17.8724 1.19102 18.8164 0.89502 19.7134 0.89502C20.7124 0.89502 21.6304 1.07602 22.4684 1.44002C23.3064 1.80402 24.0974 2.35902 24.8424 3.10402C26.3324 4.57602 27.0764 6.36202 27.0764 8.46102C27.0764 10.56 26.3314 12.354 24.8424 13.844C24.7744 13.894 21.7444 17.161 15.7524 23.644C15.5304 23.8733 15.2638 24.0547 14.969 24.177C14.6742 24.2993 14.3575 24.3599 14.0384 24.355C13.723 24.3614 13.4098 24.3016 13.119 24.1793C12.8282 24.0569 12.5664 23.8749 12.3504 23.645L11.4864 22.705C10.7758 21.9299 10.0691 21.1512 9.36639 20.369L6.82739 17.551C6.05932 16.6986 5.28932 15.8479 4.51739 14.999C4.10528 14.54 3.68623 14.0873 3.26039 13.641C2.54051 12.9251 1.97459 12.0696 1.59739 11.127C1.22457 10.2207 1.03034 9.25097 1.02539 8.27102C1.02539 7.31402 1.21539 6.36202 1.59739 5.41402C1.97459 4.47143 2.54051 3.61592 3.26039 2.90002C3.95439 2.20602 4.72439 1.69902 5.57039 1.37702C6.41739 1.05502 7.34039 0.89502 8.33839 0.89502V0.89502Z" fill="#2C56A1" stroke="#2C56A1" stroke-width="0.7"/>
</svg>
