<svg width="23" height="29" viewBox="0 0 23 29" fill="none" xmlns="http://www.w3.org/2000/svg">
<path d="M11.4 27.7001C8.2 27.7001 5.6 26.7001 3.6 24.7001C1.6 22.7001 0.5 20.2001 0.5 17.2001C0.5 16.6001 0.6 15.9 0.7 15.2C0.8 14.5 1 13.9 1.2 13.4C1.4 12.9 1.6 12.4 1.8 11.9C2 11.4 2.2 11 2.3 10.8C2.4 10.6 2.5 10.5 2.6 10.3C2.7 10 3 9.90005 3.4 9.90005C3.6 9.90005 3.7 10 3.9 10.1C4 10.2 4.1 10.3 4.1 10.5C4.4 11.8 4.8 12.8 5.3 13.6C5.8 14.3 6.2 14.9 6.8 15.2C6.3 13 6.2 10.9 6.6 8.90005C6.8 7.70005 7.2 6.60005 7.7 5.60005C8.2 4.60005 8.8 3.80005 9.3 3.30005C9.8 2.80005 10.4 2.30005 11.1 1.80005C11.7 1.40005 12.2 1.10005 12.5 1.00005C12.8 0.900049 13 0.800049 13.2 0.800049C13.3 0.800049 13.5 0.800049 13.6 0.800049C13.7 0.800049 13.9 0.900049 14 1.00005C14.2 1.20005 14.3 1.50005 14.2 1.80005C14.2 1.90005 14.2 2.10005 14.1 2.30005C14.1 2.50005 14 3.00005 14 3.60005C14 4.30005 14 4.90005 14 5.60005C14 6.30005 14.2 7.00005 14.3 7.90005C14.5 8.80005 14.7 9.60005 15.1 10.3C15.2 10.5 15.3 10.6 15.4 10.8C15.5 11 15.6 11.2 15.8 11.4C15.9 10.8 16 10.2 16.1 9.60005C16.5 8.20005 17.2 7.20005 18.3 6.60005C18.4 6.50005 18.5 6.50005 18.5 6.50005C18.6 6.40005 18.8 6.40005 18.9 6.40005C19 6.40005 19.2 6.50005 19.3 6.60005C19.4 6.70005 19.5 6.80005 19.6 7.00005C19.7 7.10005 19.7 7.30005 19.6 7.50005C19.6 7.60005 19.6 7.60005 19.6 7.70005C19.6 7.80005 19.6 8.00005 19.6 8.20005C19.6 8.50005 19.7 8.70005 19.7 9.00005C19.8 9.30005 19.9 9.60005 20 10.1C20.1 10.6 20.4 10.9 20.6 11.4C21.2 12.4 21.6 13.3 21.8 14.1C22 14.9 22.1 16.0001 22.1 17.2001C22.1 18.4001 21.9 19.5 21.6 20.6C21.3 21.6 20.8 22.6 20.1 23.5C19.4 24.4 18.6 25.1001 17.8 25.7001C16.9 26.3001 15.8 26.8 14.7 27.1C13.8 27.5 12.6 27.7001 11.4 27.7001ZM3.2 13C2.6 14.6 2.2 16 2.2 17.1C2.2 19.7 3.1 21.8 4.8 23.4C6.5 25.1 8.7 25.9 11.4 25.9C14.1 25.9 16.4 25.1 18.1 23.4C19.9 21.7 20.7 19.6 20.7 17.1C20.7 16.4 20.7 15.7 20.6 15.2C20.5 14.7 20.4 14.2 20.2 13.7C20 13.1 19.7 12.6 19.4 12.1C18.8 11.1 18.4 10.1 18.2 9.00005C18 9.30005 17.9 9.60005 17.8 10C17.7 10.5 17.6 11.1 17.5 11.8C17.4 12.5 17.4 13 17.4 13.3C17.4 13.6 17.4 13.8 17.4 13.9C17.4 14.1 17.4 14.3 17.3 14.4C17.2 14.6 17 14.7 16.9 14.7C16.8 14.7 16.7 14.7 16.6 14.7C16.5 14.7 16.4 14.7 16.3 14.7C16.2 14.7 16.1 14.6 16.1 14.6C16 14.5 16 14.5 15.9 14.4C14.8 12.9 14.1 11.7 13.7 10.8C12.7 8.60005 12.3 5.90005 12.5 2.80005C12.1 3.00005 11.7 3.30005 11.3 3.60005C10.9 3.90005 10.5 4.30005 10.1 4.80005C9.7 5.50005 9.3 6.10005 9 6.80005C8.6 7.60005 8.4 8.40005 8.3 9.20005C8.2 9.90005 8.1 10.6 8.1 11.3C8.1 12 8.1 12.7 8.2 13.3C8.3 13.9 8.4 14.4 8.5 14.9C8.6 15.4 8.7 15.8 8.8 16C8.9 16.2 8.9 16.4 8.9 16.4C8.9 16.5 9 16.5 9 16.6C9 16.7 9 16.8 9 16.8C9 16.9 9 16.9 8.9 17C8.9 17.1 8.8 17.1001 8.8 17.2001C8.6 17.4001 8.3 17.5 8 17.5C7.9 17.5 7.8 17.4 7.7 17.4C7.5 17.3 7.2 17.2 7 17.1C6.7 16.9 6.3 16.8 6 16.5C5.6 16.2 5.3 15.9 5 15.6C4.6 15.2 4.3 14.8 4 14.3C3.9 14.1 3.7 13.9 3.6 13.6C3.4 13.5 3.3 13.3 3.2 13Z" fill="#2C56A1" stroke="#2C56A1" stroke-width="0.7"/>
</svg>
