<svg width="112" height="111" viewBox="0 0 112 111" fill="none" xmlns="http://www.w3.org/2000/svg">
<path d="M106 0H6C2.68629 0 0 2.68629 0 6V105C0 108.314 2.68629 111 6 111H106C109.314 111 112 108.314 112 105V6C112 2.68629 109.314 0 106 0Z" fill="#2953A0"/>
<path fill-rule="evenodd" clip-rule="evenodd" d="M23.3843 57.27C23.5363 57.236 23.6853 57.182 23.8293 57.106C27.2993 55.265 30.8463 54.38 34.4943 54.437C38.0713 54.494 41.0283 55.477 43.4273 57.383C44.1833 57.983 45.2853 57.855 45.8883 57.096C46.0317 56.9162 46.1383 56.71 46.202 56.489C46.2657 56.268 46.2853 56.0367 46.2595 55.8081C46.2338 55.5796 46.1633 55.3584 46.0521 55.1571C45.9409 54.9558 45.7911 54.7784 45.6113 54.635C42.5873 52.233 38.8833 51.001 34.5613 50.933C30.8893 50.875 27.3073 51.636 23.8303 53.208L23.7193 52.786C21.6803 46.165 21.6803 40.6 23.7193 36.09C25.7573 31.581 29.0433 28.734 33.5753 27.549C35.3453 23.972 38.3243 21.254 42.5103 19.394C46.6953 17.535 50.8593 17.535 55.0003 19.394V91.474C52.1023 92.961 48.9683 93.361 45.5983 92.674C42.2283 91.989 39.9323 90.141 38.7073 87.134C34.9173 87.001 31.9513 85.514 29.8103 82.671C27.6683 79.828 27.2303 76.444 28.4973 72.521C24.8993 70.927 22.8013 68.491 22.2013 65.214C21.7153 62.554 22.1093 59.906 23.3843 57.27V57.27ZM45.8803 34.273C45.5243 35.667 44.7103 36.708 43.3553 37.476C41.8693 38.318 40.3393 38.705 38.7303 38.651C38.2658 38.6348 37.8139 38.8037 37.4739 39.1207C37.1339 39.4376 36.9337 39.8765 36.9173 40.341C36.9027 40.8052 37.0731 41.2562 37.3909 41.5949C37.7088 41.9335 38.1481 42.1321 38.6123 42.147C40.8773 42.223 43.0483 41.674 45.0903 40.517C47.2633 39.285 48.6873 37.464 49.2823 35.135C49.3879 34.6869 49.3132 34.2153 49.0743 33.8217C48.8354 33.4282 48.4514 33.1443 48.0051 33.0312C47.5589 32.9182 47.086 32.985 46.6886 33.2173C46.2911 33.4495 46.0008 33.8287 45.8803 34.273V34.273ZM34.9723 66.103C38.4273 67.147 40.4583 68.597 41.2133 70.357C42.1163 72.462 42.5583 74.383 42.5563 76.121C42.5567 76.5851 42.7414 77.0301 43.0699 77.358C43.3984 77.6859 43.8437 77.8699 44.3078 77.8695C44.7719 77.8691 45.2169 77.6844 45.5448 77.3559C45.8727 77.0274 46.0567 76.5821 46.0563 76.118C46.0573 73.871 45.5093 71.486 44.4283 68.965C43.1983 66.1 40.3363 64.057 35.9883 62.743C35.7679 62.6768 35.5367 62.6547 35.3078 62.6778C35.0789 62.701 34.8567 62.7691 34.6541 62.8781C34.4515 62.9871 34.2723 63.135 34.1269 63.3132C33.9814 63.4915 33.8725 63.6966 33.8063 63.917C33.6711 64.3615 33.7179 64.8415 33.9366 65.2515C34.1553 65.6614 34.5278 65.9677 34.9723 66.103V66.103ZM89.7833 57.628C90.9243 60.145 91.2633 62.674 90.7993 65.214C90.1993 68.491 88.1013 70.927 84.5033 72.52C85.7703 76.444 85.3323 79.828 83.1903 82.67C81.4573 84.971 79.1853 86.384 76.3733 86.91C76.6042 86.698 76.7738 86.4277 76.8644 86.1276C76.955 85.8274 76.9632 85.5085 76.8881 85.2041C76.8131 84.8997 76.6575 84.6211 76.4378 84.3975C76.2181 84.1738 75.9423 84.0134 75.6393 83.933C73.9593 83.485 72.2183 82.561 70.4193 81.143C68.8493 79.909 67.7393 77.474 67.1933 73.773C67.1249 73.3133 66.8767 72.8995 66.5034 72.6225C66.1301 72.3456 65.6621 72.2281 65.2023 72.296C64.9745 72.3288 64.7555 72.4062 64.5577 72.5238C64.3599 72.6414 64.1873 72.7968 64.0496 72.9812C63.912 73.1655 63.812 73.3752 63.7555 73.5983C63.699 73.8213 63.687 74.0533 63.7203 74.281C64.3843 78.785 65.8563 82.01 68.2423 83.889C70.2463 85.466 72.2553 86.569 74.2733 87.182C73.0433 90.162 70.7533 91.992 67.4023 92.675C64.0323 93.361 60.8983 92.961 58.0003 91.475V19.395C62.1413 17.535 66.3053 17.535 70.4903 19.395C74.6763 21.254 77.6543 23.972 79.4253 27.549C83.9573 28.734 87.2433 31.581 89.2813 36.09C91.3203 40.6 91.3203 46.165 89.2813 52.786L89.0863 53.527C85.6763 56.799 82.5223 58.651 79.6583 59.131C77.8123 59.44 76.3653 59.628 75.3303 59.696C74.9587 59.7256 74.5856 59.7312 74.2133 59.713C74.1591 59.7095 74.105 59.7038 74.0513 59.696C73.6528 59.5157 73.2012 59.4911 72.7855 59.6271C72.3698 59.7632 72.0201 60.05 71.8053 60.431C71.5781 60.8367 71.5214 61.3159 71.6476 61.7634C71.7738 62.2109 72.0726 62.5898 72.4783 62.817C73.6273 63.464 75.8803 63.316 80.2483 62.584C83.3463 62.066 86.5163 60.404 89.7833 57.628V57.628ZM70.4303 37.308C70.2954 36.8747 69.998 36.5104 69.6004 36.2916C69.2029 36.0727 68.736 36.0163 68.2978 36.1341C67.8595 36.2519 67.4839 36.5348 67.2496 36.9235C67.0154 37.3122 66.9407 37.7765 67.0413 38.219C68.1713 42.454 70.0293 45.431 72.6813 47.059C75.3253 48.681 78.2543 49.052 81.3423 48.167C81.5632 48.1041 81.7696 47.9983 81.9497 47.8556C82.1297 47.713 82.2799 47.5362 82.3917 47.3355C82.5034 47.1348 82.5746 46.914 82.601 46.6858C82.6275 46.4576 82.6087 46.2265 82.5458 46.0055C82.4829 45.7846 82.3771 45.5782 82.2344 45.3981C82.0917 45.218 81.915 45.0679 81.7143 44.9561C81.5136 44.8443 81.2928 44.7732 81.0646 44.7468C80.8364 44.7203 80.6052 44.7391 80.3843 44.802C78.2323 45.419 76.3203 45.177 74.5243 44.075C72.7383 42.978 71.3503 40.753 70.4303 37.308V37.308Z" fill="white"/>
</svg>
