<svg width="112" height="111" viewBox="0 0 112 111" fill="none" xmlns="http://www.w3.org/2000/svg">
<path d="M106 0H6C2.68629 0 0 2.68629 0 6V105C0 108.314 2.68629 111 6 111H106C109.314 111 112 108.314 112 105V6C112 2.68629 109.314 0 106 0Z" fill="#2953A0"/>
<path fill-rule="evenodd" clip-rule="evenodd" d="M79.4841 25.6069L72.0511 33.0389C69.9071 35.1839 67.3091 36.3239 65.1101 36.5569C62.9101 36.7889 58.3801 36.6219 56.4151 38.1189C53.0681 40.6689 51.8731 44.7589 53.0311 48.6349C53.7891 51.1709 55.9651 53.0319 59.5581 54.2199C60.7461 57.8139 62.6081 59.9899 65.1431 60.7469C69.0201 61.9059 73.1091 60.7099 75.6591 57.3639C77.1561 55.3979 76.9891 50.8679 77.2221 48.6689C77.4541 46.4689 78.5941 43.8719 80.7391 41.7269L88.0471 34.4189C98.5851 49.4389 97.1441 70.3029 83.7241 83.7239C70.3031 97.1439 49.4391 98.5849 34.4191 88.0469L42.1061 80.3609C44.2501 78.2159 46.8481 77.0759 49.0471 76.8429C51.2471 76.6109 55.7771 76.7779 57.7421 75.2809C61.0891 72.7309 62.2841 68.6409 61.1251 64.7649C60.3681 62.2289 58.1921 60.3679 54.5981 59.1799C53.4111 55.5859 51.5491 53.4099 49.0131 52.6529C45.1371 51.4939 41.0481 52.6899 38.4981 56.0359C37.0001 58.0019 37.1681 62.5319 36.9351 64.7309C36.7031 66.9309 35.5621 69.5279 33.4181 71.6729L25.6071 79.4829C14.3611 64.4069 15.5841 42.9679 29.2771 29.2759C42.9681 15.5839 64.4071 14.3609 79.4841 25.6059V25.6069Z" fill="white"/>
</svg>
