<svg width="112" height="111" viewBox="0 0 112 111" fill="none" xmlns="http://www.w3.org/2000/svg">
<path d="M106 0H6C2.68629 0 0 2.68629 0 6V105C0 108.314 2.68629 111 6 111H106C109.314 111 112 108.314 112 105V6C112 2.68629 109.314 0 106 0Z" fill="#2953A0"/>
<path d="M55.92 75.0784C47.1206 71.9834 40.5375 66.6551 36.171 59.0921C31.8045 51.5291 30.4816 43.1639 32.2015 33.9968C41.0009 37.0917 47.5835 42.4191 51.95 49.9821C56.3165 57.5451 57.6399 65.9113 55.9205 75.0793L55.92 75.0784Z" fill="white"/>
<path fill-rule="evenodd" clip-rule="evenodd" d="M55.4063 76.5401C46.2642 73.3255 39.3848 67.756 34.8298 59.8666C30.2748 51.9771 28.8917 43.2355 30.6783 33.71L31.0104 31.9352L32.716 32.5335C41.8587 35.749 48.7376 41.3176 53.2926 49.2071C57.8476 57.0965 59.2303 65.8395 57.444 75.3636L57.1107 77.1403L55.4063 76.5401Z" stroke="#2953A0" stroke-width="3.1"/>
<path d="M58.397 77.0052C49.2946 79.0435 40.8883 78.0134 33.1766 73.913C25.4667 69.8136 19.9119 63.4204 16.5117 54.7344C25.6141 52.6961 34.02 53.7272 41.7308 57.827C49.4416 61.9269 54.9968 68.3192 58.3965 77.0061L58.397 77.0052Z" fill="white"/>
<path fill-rule="evenodd" clip-rule="evenodd" d="M58.7352 78.5181C49.2779 80.6361 40.4934 79.5589 32.4497 75.282C24.4061 71.0051 18.5999 64.3243 15.0682 55.2999L14.4094 53.6166L16.1729 53.2224C25.6293 51.1039 34.4147 52.1816 42.4584 56.4585C50.502 60.7353 56.3073 67.4157 59.8399 76.4405L60.4983 78.1225L58.7352 78.5181Z" stroke="#2953A0" stroke-width="3.1"/>
<path d="M55.9203 75.0783C64.7197 71.9833 71.3028 66.655 75.6693 59.092C80.0358 51.529 81.3578 43.1632 79.6383 33.9975C70.839 37.0924 64.2563 42.4199 59.8898 49.9829C55.5233 57.5459 54.2 65.912 55.9193 75.08L55.9203 75.0783Z" fill="white"/>
<path fill-rule="evenodd" clip-rule="evenodd" d="M56.4345 76.5401C65.5766 73.3255 72.456 67.756 77.011 59.8666C81.566 51.9771 82.9491 43.2355 81.1625 33.71L80.8296 31.9347L79.1256 32.534C69.983 35.7495 63.1041 41.3181 58.5491 49.2076C53.9941 57.097 52.6105 65.8395 54.3976 75.3641L54.7301 77.1403L56.4345 76.5401Z" stroke="#2953A0" stroke-width="3.1"/>
<path d="M55.1744 73.0261C54.9097 73.4273 55.2122 75.2145 55.5425 76.2745C55.6854 76.7308 56.8259 76.2558 56.9356 76.2745C57.6252 76.3915 56.623 77.6718 57.3059 77.7527C64.7495 78.631 71.7024 77.3509 78.1682 73.913C85.879 69.8131 91.4347 63.4195 94.834 54.7339C85.7321 52.6965 77.3257 53.7267 69.6149 57.8266C65.0924 60.2312 60.2797 65.2977 55.1748 73.027L55.1744 73.0261Z" fill="white"/>
<path fill-rule="evenodd" clip-rule="evenodd" d="M55.579 77.9982C55.775 78.6822 56.3436 79.1998 57.1243 79.2921C64.8784 80.2069 72.1502 78.8683 78.8959 75.2815C86.9395 71.0047 92.7448 64.3243 96.2774 55.2995L96.9358 53.6175L95.1728 53.2219C85.7154 51.1039 76.9309 52.1811 68.8872 56.458C64.0937 59.0067 59.1153 64.2474 53.8812 72.1723C53.267 73.1025 53.5191 74.989 54.063 76.7361C54.3009 77.4987 54.905 77.8978 55.579 77.9982V77.9982Z" stroke="#2953A0" stroke-width="3.1"/>
<path d="M55.8278 76.438C49.7548 69.358 46.7178 61.452 46.7178 52.718C46.7178 43.986 49.7548 36.079 55.8278 29C61.9008 36.08 64.9378 43.986 64.9378 52.719C64.9378 61.452 61.9008 69.358 55.8278 76.437V76.438Z" fill="white"/>
<path fill-rule="evenodd" clip-rule="evenodd" d="M54.6519 77.4469C48.3419 70.0909 45.1689 61.8289 45.1689 52.7189C45.1689 43.6089 48.3419 35.3459 54.6519 27.9909L55.8279 26.6189L57.0049 27.9909C63.3149 35.3459 66.4869 43.6089 66.4869 52.7189C66.4869 61.8289 63.3139 70.0909 57.0049 77.4469L55.8279 78.8179L54.6519 77.4469Z" stroke="#2953A0" stroke-width="3.1"/>
</svg>
